<?xml version="1.0" encoding="utf-8"?>
<!-- Generator: Adobe Illustrator 23.0.1, SVG Export Plug-In . SVG Version: 6.00 Build 0)  -->
<svg version="1.1" id="Layer_1" xmlns="http://www.w3.org/2000/svg" xmlns:xlink="http://www.w3.org/1999/xlink" x="0px" y="0px"
	 viewBox="0 0 196 250" style="enable-background:new 0 0 196 250;" xml:space="preserve">
<style type="text/css">
	.st0{fill:#FFFFFF;}
	.st1{fill-rule:evenodd;clip-rule:evenodd;fill:#B3B3B3;}
	.st2{fill:none;stroke:#C1272D;stroke-width:4;stroke-linecap:round;stroke-miterlimit:10;}
	.st3{fill:none;stroke:#666666;stroke-width:4;stroke-linecap:round;stroke-miterlimit:10;}
</style>
<g>
	<polygon class="st0" points="178,54 178,232 22,232 22,26 150,26 	"/>
</g>
<g>
	<polygon class="st1" points="150,54 178,54 150,26 	"/>
</g>
<line class="st2" x1="38" y1="47" x2="117" y2="47"/>
<line class="st2" x1="38" y1="97" x2="164" y2="97"/>
<line class="st2" x1="37" y1="150" x2="163" y2="150"/>
<line class="st2" x1="37" y1="203" x2="163" y2="203"/>
<line class="st3" x1="37" y1="61" x2="89" y2="61"/>
<line class="st3" x1="37" y1="75" x2="89" y2="75"/>
<line class="st3" x1="37" y1="109" x2="163" y2="109"/>
<line class="st3" x1="37" y1="123" x2="143" y2="123"/>
<line class="st3" x1="37" y1="136" x2="163" y2="136"/>
<line class="st3" x1="37" y1="163" x2="163" y2="163"/>
<line class="st3" x1="37" y1="177" x2="143" y2="177"/>
<line class="st3" x1="37" y1="190" x2="163" y2="190"/>
</svg>
